<svg fill="none" height="24" viewBox="0 0 24 24" width="24" xmlns="http://www.w3.org/2000/svg"><path clip-rule="evenodd" d="m12 5.78603c0-1.04634 1.2088-1.62961 2.0278-.97849l7.4496 5.92216c.6271.4984.63 1.4498.006 1.9521l-7.4496 5.9973c-.8178.6584-2.0338.0762-2.0338-.9737v-2.7533c-.9337-.0333-1.7934.0663-2.82375.4264-1.30618.4565-2.91785 1.3427-5.29561 2.9814-.43573.3003-.97286.2871-1.36951.0284-.40962-.2672-.63977-.7815-.47888-1.326.5907-1.999 1.9102-4.1241 3.74308-5.7547 1.66838-1.48433 3.79613-2.5874 6.22467-2.77838zm1.5.51811v2.94567c0 .41422-.3358.75-.75.75-2.2962 0-4.35044.98079-5.97764 2.42849-1.36027 1.2101-2.39332 2.7225-2.99394 4.1881 2.03051-1.3562 3.56466-2.1862 4.90296-2.6539 1.52882-.5343 2.76822-.584 4.13652-.4596.3863.0351.6821.359.6821.7469v2.9334l6.7994-5.4738z" fill="#000001" fill-rule="evenodd"/></svg>